<svg xmlns="http://www.w3.org/2000/svg" width="23.902" height="23.902" viewBox="0 0 23.902 23.902">
  <path id="iconfinder_BW_Dribbble_2_glyph_svg_5305152" d="M11.951,0A11.951,11.951,0,1,0,23.9,11.951,11.954,11.954,0,0,0,11.951,0Zm7.894,5.509a10.16,10.16,0,0,1,2.307,6.351,24.1,24.1,0,0,0-7.1-.324c-.078-.169-.143-.35-.22-.532-.207-.492-.441-1-.674-1.478a13.662,13.662,0,0,0,5.69-4.018ZM11.951,1.763a10.185,10.185,0,0,1,6.766,2.567A11.572,11.572,0,0,1,13.364,8.01,55.138,55.138,0,0,0,9.553,2.035,10.382,10.382,0,0,1,11.951,1.763Zm-4.342.959a64.429,64.429,0,0,1,3.785,5.9A38.287,38.287,0,0,1,1.957,9.864,10.254,10.254,0,0,1,7.609,2.722ZM1.737,11.964v-.311A37.3,37.3,0,0,0,12.223,10.2c.3.57.57,1.154.829,1.737-.13.039-.272.078-.4.117a16.228,16.228,0,0,0-8.3,6.727,10.184,10.184,0,0,1-2.618-6.818Zm10.214,10.2A10.136,10.136,0,0,1,5.69,20.013c.181-.376,2.255-4.368,8.01-6.377.026-.013.039-.013.065-.026a42.2,42.2,0,0,1,2.178,7.738,10.041,10.041,0,0,1-3.992.816Zm5.69-1.75a43.907,43.907,0,0,0-1.983-7.272,14.905,14.905,0,0,1,6.351.441,10.119,10.119,0,0,1-4.368,6.831Z" fill="#fff" fill-rule="evenodd" opacity="0.9"/>
</svg>
