<svg xmlns="http://www.w3.org/2000/svg" width="24.408" height="23.9" viewBox="0 0 24.408 23.9">
  <g id="github" transform="translate(0 -5.329)">
    <g id="Group_1" data-name="Group 1" transform="translate(0 5.329)">
      <path id="Path_4" data-name="Path 4" d="M12.2,5.329A12.26,12.26,0,0,0,8.348,29.208c.61.113.833-.265.833-.59,0-.291-.011-1.062-.017-2.084-3.394.74-4.111-1.643-4.111-1.643A3.236,3.236,0,0,0,3.7,23.1c-1.109-.76.082-.744.082-.744a2.563,2.563,0,0,1,1.869,1.263A2.594,2.594,0,0,0,9.2,24.634,2.615,2.615,0,0,1,9.977,23c-2.709-.31-5.559-1.361-5.559-6.055a4.749,4.749,0,0,1,1.257-3.289,4.415,4.415,0,0,1,.119-3.242s1.025-.33,3.356,1.255a11.519,11.519,0,0,1,6.111,0c2.329-1.585,3.353-1.255,3.353-1.255a4.422,4.422,0,0,1,.122,3.242,4.74,4.74,0,0,1,1.254,3.289c0,4.706-2.853,5.742-5.571,6.046a2.931,2.931,0,0,1,.828,2.268c0,1.638-.015,2.959-.015,3.361,0,.328.22.709.839.589A12.261,12.261,0,0,0,12.2,5.329Z" transform="translate(0 -5.329)" fill="#fff"/>
    </g>
  </g>
</svg>
