<svg xmlns="http://www.w3.org/2000/svg" width="23.902" height="23.902" viewBox="0 0 23.902 23.902">
  <g id="iconfinder_Instagram_glyph_svg_5335781" transform="translate(0 0)" opacity="0.9">
    <path id="Path_1" data-name="Path 1" d="M11.951.162C8.705.162,8.3.175,7.024.233a8.772,8.772,0,0,0-2.9.556A5.858,5.858,0,0,0,2.006,2.167,5.858,5.858,0,0,0,.627,4.284a8.772,8.772,0,0,0-.556,2.9C.014,8.46,0,8.867,0,12.112s.014,3.653.072,4.927a8.772,8.772,0,0,0,.556,2.9,5.859,5.859,0,0,0,1.378,2.117,5.858,5.858,0,0,0,2.117,1.378,8.772,8.772,0,0,0,2.9.555c1.275.058,1.682.072,4.927.072s3.653-.014,4.927-.072a8.772,8.772,0,0,0,2.9-.555,6.111,6.111,0,0,0,3.5-3.5,8.772,8.772,0,0,0,.555-2.9c.058-1.275.072-1.682.072-4.927s-.014-3.653-.072-4.927a8.772,8.772,0,0,0-.555-2.9A5.858,5.858,0,0,0,21.9,2.167,5.859,5.859,0,0,0,19.779.789a8.772,8.772,0,0,0-2.9-.556C15.6.175,15.2.162,11.951.162Zm0,2.153c3.191,0,3.569.012,4.829.07A6.614,6.614,0,0,1,19,2.8a3.7,3.7,0,0,1,1.374.894,3.7,3.7,0,0,1,.894,1.374,6.612,6.612,0,0,1,.411,2.219c.057,1.26.07,1.638.07,4.829s-.012,3.569-.07,4.829a6.612,6.612,0,0,1-.411,2.219A3.958,3.958,0,0,1,19,21.429a6.612,6.612,0,0,1-2.219.411c-1.26.057-1.638.07-4.829.07s-3.569-.012-4.829-.07A6.612,6.612,0,0,1,4.9,21.429a3.7,3.7,0,0,1-1.374-.894,3.7,3.7,0,0,1-.894-1.374,6.613,6.613,0,0,1-.412-2.219c-.057-1.26-.07-1.638-.07-4.829s.012-3.569.07-4.829a6.613,6.613,0,0,1,.412-2.219A3.7,3.7,0,0,1,3.528,3.69,3.7,3.7,0,0,1,4.9,2.8a6.614,6.614,0,0,1,2.219-.411C8.382,2.327,8.76,2.315,11.951,2.315Z" transform="translate(0 -0.162)" fill="#fff"/>
    <path id="Path_2" data-name="Path 2" d="M130.768,134.972a4.043,4.043,0,1,1,4.043-4.043A4.043,4.043,0,0,1,130.768,134.972Zm0-10.271A6.228,6.228,0,1,0,137,130.93,6.228,6.228,0,0,0,130.768,124.7Z" transform="translate(-118.817 -118.979)" fill="#fff"/>
    <path id="Path_3" data-name="Path 3" d="M364.756,90.2a1.412,1.412,0,1,1-1.412-1.412A1.412,1.412,0,0,1,364.756,90.2Z" transform="translate(-345 -84.642)" fill="#fff"/>
  </g>
</svg>
