<svg xmlns="http://www.w3.org/2000/svg" width="23.261" height="22.233" viewBox="0 0 23.261 22.233">
  <path id="iconfinder_LinkedIn_alt_367593" d="M46.295,62.509H51.28v15H46.295Zm2.526-7.231a2.6,2.6,0,1,0-.065,5.183h.032a2.6,2.6,0,1,0,.033-5.183Zm14.7,6.879a4.949,4.949,0,0,0-4.493,2.476V62.509H54.04c.066,1.407,0,15,0,15h4.987V69.133a3.433,3.433,0,0,1,.164-1.217,2.73,2.73,0,0,1,2.558-1.823c1.806,0,2.527,1.376,2.527,3.392v8.026h4.986v-8.6C69.261,64.3,66.8,62.157,63.52,62.157Z" transform="translate(-46 -55.278)" fill="#fff" opacity="0.9"/>
</svg>
